PathFileType	4	(X/Y/Z)	pose_F01_0-89.trc
DataRate	CameraRate	NumFrames	NumMarkers	Units	OrigDataRate	OrigDataStartFrame	OrigNumFrames
30	30	7	21	m	30	12	89
Frame#	Time	CHip			RHip			RKnee			RAnkle			RBigToe			RSmallToe			RHeel			LHip			LKnee			LAnkle			LBigToe			LSmallToe			LHeel			Neck			Nose			RShoulder			RElbow			RWrist			LShoulder			LElbow			LWrist			
		X1	Y1	Z1	X2	Y2	Z2	X3	Y3	Z3	X4	Y4	Z4	X5	Y5	Z5	X6	Y6	Z6	X7	Y7	Z7	X8	Y8	Z8	X9	Y9	Z9	X10	Y10	Z10	X11	Y11	Z11	X12	Y12	Z12	X13	Y13	Z13	X14	Y14	Z14	X15	Y15	Z15	X16	Y16	Z16	X17	Y17	Z17	X18	Y18	Z18	X19	Y19	Z19	X20	Y20	Z20	X21	Y21	Z21	
12	0.4	-0.22258685486882865	1.8356290296583893	-0.41386656232329894	-0.23422881766404	1.8330191527856294	-0.3589673884911796	-0.24566482412274152	1.7176260669371057	-0.4055809952512286													-0.21296830306682854	1.8365531932555679	-0.469832604766188	-0.20873840553709216	1.7237558025147137	-0.45241806530031087	-0.23374462180958266	1.624813836111612	-0.4690228441007768	-0.23835198179638853	1.587645000703577	-0.5101649786184993	-0.22427457844043788	1.6128552940250862	-0.493671392167171				-0.2185298163808917	1.9768587981108792	-0.43003243311731365	-0.2262327243313048	2.0370400169576905	-0.46934781222563515	-0.23526814708962268	1.9735058602031978	-0.3431758646552271	-0.24379637069511242	1.8967000422081046	-0.3055808108843707	-0.24918642269246766	1.8300898451550591	-0.3087074696703753	-0.19926680454579332	1.9793572351035633	-0.5164856784667748	-0.1877924072003867	1.9104628044211462	-0.53642693720347	-0.19493056623223456	1.8450525004342557	-0.5384295299906479
13	0.43333333333333335	-0.22524746297232667	1.8362451239116948	-0.41520283247945067	-0.2340842715192068	1.8329485572327873	-0.3592229303165423	-0.24566482412274152	1.7176260669371057	-0.4055809952512286													-0.21463999154585445	1.83840463951653	-0.4767554044778246	-0.20873840553709216	1.7237558025147137	-0.45241806530031087	-0.23374462180958266	1.624813836111612	-0.4690228441007768	-0.23835198179638853	1.587645000703577	-0.5101649786184993	-0.22427457844043788	1.6128552940250862	-0.493671392167171				-0.21945678655286233	1.9768506203670302	-0.4331829770279376	-0.22444601842509848	2.0358063914783817	-0.4716499627562042	-0.23520021200578733	1.9721990050382774	-0.34285720354259364	-0.24507844162423179	1.896383419210222	-0.3091625348842199	-0.24937312630890116	1.829547008593347	-0.3086119367954624	-1.740601284592899	1.8909610055619814	1.1862419058381846	-0.18163080139480128	1.9109501693245048	-0.5437215130331863	-0.19574339158193133	1.8441656692917978	-0.5417114207669812
14	0.4666666666666667	-0.223166518006489	1.8375786001081997	-0.41765851533037296	-0.23301097356146608	1.8347540909821962	-0.3647852108078502	-0.24566482412274152	1.7176260669371057	-0.4055809952512286													-0.21262571718780518	1.838329097346157	-0.479098948921314	-0.20873840553709216	1.7237558025147137	-0.45241806530031087	-0.23374462180958266	1.624813836111612	-0.4690228441007768	-0.23835198179638853	1.587645000703577	-0.5101649786184993	-0.22427457844043788	1.6128552940250862	-0.493671392167171				-0.217417238853266	1.9765428838360455	-0.4352383765483619	-0.22346427666879068	2.0346137969090976	-0.4770628830742249	-0.2351525481881873	1.9722732483241368	-0.3430631628810831	-0.24309999371897045	1.8960805295406722	-0.3111068740492891	-0.24938817092000856	1.8308756685002454	-0.30857996632548323	-1.724104246478161	1.8890368773992343	1.1606532110391068	-0.1760651329301868	1.909115076340607	-0.5533699334955909	-0.19501534975757637	1.8449919644960833	-0.5423977429217405
15	0.5	-0.2213020692337115	1.8379753690554566	-0.4199431511537709	-0.23300740477991125	1.8348045238367856	-0.3649732997365689	-0.24566482412274152	1.7176260669371057	-0.4055809952512286													-0.21124529071831816	1.8381257671947837	-0.4847317225800747	-0.20873840553709216	1.7237558025147137	-0.45241806530031087	-0.23374462180958266	1.624813836111612	-0.4690228441007768	-0.23835198179638853	1.587645000703577	-0.5101649786184993	-0.22427457844043788	1.6128552940250862	-0.493671392167171				-0.21830430599851147	1.9765624243788873	-0.4384511456220568	-0.22247266294649012	2.0350056095193447	-0.48244445809884984	-0.23447780661975967	1.9738236332069903	-0.3488989675854813	-0.2442288949821823	1.8968534429121235	-0.3149162280343338	-0.25045433152375474	1.831060679032649	-0.3120907826724159	-1.7239957758110518	1.8890521295249252	1.160496226197368	-0.17058252698576426	1.9139825367610825	-0.5554209386316896	-0.18890771789474037	1.8488504504756957	-0.5499049526789676
16	0.5333333333333333	-0.2203888096235711	1.8385488721979169	-0.42547255233917586	-0.23119000632848755	1.8357547877037719	-0.36729033841447467	-0.24566482412274152	1.7176260669371057	-0.4055809952512286													-0.2104700415403428	1.8386350561208222	-0.4901517486950521	-0.20873840553709216	1.7237558025147137	-0.45241806530031087	-0.23374462180958266	1.624813836111612	-0.4690228441007768	-0.23835198179638853	1.587645000703577	-0.5101649786184993	-0.22427457844043788	1.6128552940250862	-0.493671392167171				-0.21466238735861218	1.9768233527675119	-0.4433370322091209	-0.21960324475710627	2.030883051395096	-0.4892454620407403	-0.23356932222504886	1.9739409318134182	-0.3543383105829341	-0.24354147837657636	1.8982721157530555	-0.3206707273446235	-0.24877233549825195	1.8334148398397347	-0.31441449508383024	-1.7216511824395195	1.8891709182071155	1.1576957398445018	-0.16663797095084468	1.9232917226677488	-0.561538994962976	-0.1818102140783825	1.8624577293275306	-0.5552012802749873
17	0.5666666666666667	-0.22072352968862036	1.8395798513490598	-0.43435595558213747	-0.23070767898235028	1.8374812780029912	-0.3727737970709877	-0.24566482412274152	1.7176260669371057	-0.4055809952512286													-0.20862022803463354	1.8410353984035244	-0.49271431044780833	-0.20873840553709216	1.7237558025147137	-0.45241806530031087	-0.23374462180958266	1.624813836111612	-0.4690228441007768	-0.23835198179638853	1.587645000703577	-0.5101649786184993	-0.22427457844043788	1.6128552940250862	-0.493671392167171				-0.21081036012838916	1.977105860018382	-0.4478830759167631	-0.2216098842507209	2.0302181128926566	-0.5041717110857906	-0.2327491140491305	1.9741756619226905	-0.3598186001103135	-0.24009738402467595	1.896749653299319	-0.3249751688171663	-0.2479228430516759	1.8294856916292856	-0.3194415133153667	-1.7132989291853693	1.8912690454017798	1.142442420025038	-0.16229596445130465	1.9241044307423814	-0.575196644118414	-0.18295725730064355	1.8671849704300114	-0.5591623381623333
18	0.6	-0.2236934734220352	1.8369997997673913	-0.4351734571996086	-0.23291731314387806	1.8360684108722678	-0.37904894815699136	-0.24566482412274152	1.7176260669371057	-0.4055809952512286													-0.20890971024212454	1.8373946075801786	-0.4921276819466065	-0.20873840553709216	1.7237558025147137	-0.45241806530031087	-0.23374462180958266	1.624813836111612	-0.4690228441007768	-0.23835198179638853	1.587645000703577	-0.5101649786184993	-0.22427457844043788	1.6128552940250862	-0.493671392167171				-0.211596504802877	1.9763710212652255	-0.4507647429748887	-0.22240862362679711	2.0277064905766187	-0.5063962060020953	-0.23189151462586854	1.9731701743404764	-0.36493068280159324	-0.23909552747368695	1.8990759646571165	-0.33060528266086325	-0.24734197062449728	1.8373513707337814	-0.3261338579033291	-1.7127745278625723	1.8912700101596605	1.1415810328252471	-0.1624868741705465	1.9307637599015766	-0.5875498329124287	-0.17526331844429618	1.877588039875653	-0.5729461534522126
